<?xml version="1.0" standalone="no"?>
<!DOCTYPE svg PUBLIC "-//W3C//DTD SVG 20010904//EN"
 "http://www.w3.org/TR/2001/REC-SVG-20010904/DTD/svg10.dtd">
<svg version="1.0" xmlns="http://www.w3.org/2000/svg"
 width="256.000000pt" height="256.000000pt" viewBox="0 0 256.000000 256.000000"
 preserveAspectRatio="xMidYMid meet">
<metadata>
Created by potrace 1.14, written by Peter Selinger 2001-2017
</metadata>
<g transform="translate(0.000000,256.000000) scale(0.100000,-0.100000)"
fill="#000000" stroke="none">
<path d="M921 1792 c-31 -16 -38 -28 -83 -152 -27 -74 -55 -151 -63 -170 -7
-19 -32 -87 -54 -150 -23 -63 -55 -151 -72 -195 -17 -44 -39 -102 -49 -130
-44 -121 -103 -266 -111 -271 -13 -8 -11 -42 6 -73 29 -58 205 -141 297 -141
69 0 96 29 132 141 15 48 33 95 40 105 15 20 17 13 31 -116 4 -30 14 -71 23
-90 l17 -35 585 -1 c324 -1 592 2 602 7 9 5 29 34 43 64 26 53 27 60 23 178
-4 100 -8 130 -26 164 -28 54 -56 73 -110 73 l-44 0 18 28 c25 38 27 186 2
224 -18 27 -18 27 15 43 18 8 39 25 47 37 18 29 23 166 8 226 -17 71 -27 74
-255 72 -109 -1 -303 -1 -431 -1 -231 1 -233 1 -242 24 -23 54 -68 85 -183
126 -102 36 -120 37 -166 13z m331 -422 l3 -55 -38 -3 -37 -3 18 48 c11 26 22
57 26 67 11 31 24 6 28 -54z m-101 -222 c0 -24 2 -52 4 -63 2 -11 5 -33 7 -50
3 -29 2 -30 -40 -31 -52 -2 -58 8 -38 68 43 124 65 150 67 76z"/>
</g>
</svg>
